PathFileType	4	(X/Y/Z)	C:\Users\Basilio\Documents\Thesis Gigler\squatting_fais\c3dfiles\039\SJ_pre2\markers_experimental.trc
DataRate	CameraRate	NumFrames	NumMarkers	Units	OrigDataRate	OrigDataStartFrame	OrigNumFrames
200.000000	200.000000	4	61	mm	200.000000	1515	1732
Frame#	Time	FHD			LBHD			RBHD			C7			T10			CLAV			LSHO			LUUPA			LMUPA			LDUPA			LLEP			LMEP			LRAD			LUL			LRFIN			RSHO			RUPA1			RMUPA			RDUPA			RLEP			RMEP			RRAD			RUL			RUFIN			LASI			RASI			USACR			LSACR			RSACR			LTHI1			LTHI2			LTHI3			LTHI4			LLFC			LMFC			LTIB1			LTIB2			LTIB3			LTIB4			LLMAL			LMMAL			LHEE			LMT1			LMT2			LMT5			RTHI			RTHI2			RTHI3			RTHI4			RLFC			RMFC			RTIB1			RTIB2			RTIB3			RTIB4			RLMAL			RMMAL			RHEE			RMT1			RMT2			RMT5			
		X1	Y1	Z1	X2	Y2	Z2	X3	Y3	Z3	X4	Y4	Z4	X5	Y5	Z5	X6	Y6	Z6	X7	Y7	Z7	X8	Y8	Z8	X9	Y9	Z9	X10	Y10	Z10	X11	Y11	Z11	X12	Y12	Z12	X13	Y13	Z13	X14	Y14	Z14	X15	Y15	Z15	X16	Y16	Z16	X17	Y17	Z17	X18	Y18	Z18	X19	Y19	Z19	X20	Y20	Z20	X21	Y21	Z21	X22	Y22	Z22	X23	Y23	Z23	X24	Y24	Z24	X25	Y25	Z25	X26	Y26	Z26	X27	Y27	Z27	X28	Y28	Z28	X29	Y29	Z29	X30	Y30	Z30	X31	Y31	Z31	X32	Y32	Z32	X33	Y33	Z33	X34	Y34	Z34	X35	Y35	Z35	X36	Y36	Z36	X37	Y37	Z37	X38	Y38	Z38	X39	Y39	Z39	X40	Y40	Z40	X41	Y41	Z41	X42	Y42	Z42	X43	Y43	Z43	X44	Y44	Z44	X45	Y45	Z45	X46	Y46	Z46	X47	Y47	Z47	X48	Y48	Z48	X49	Y49	Z49	X50	Y50	Z50	X51	Y51	Z51	X52	Y52	Z52	X53	Y53	Z53	X54	Y54	Z54	X55	Y55	Z55	X56	Y56	Z56	X57	Y57	Z57	X58	Y58	Z58	X59	Y59	Z59	X60	Y60	Z60	X61	Y61	Z61	

1516	7.575	-206.2569580078126	1774.72802734375	-788.9163818359377	-311.5682373046876	1713.04296875	-948.2249145507815	-328.8992919921876	1722.373291015625	-808.6360473632815	-355.2338867187501	1571.431030273438	-870.231140136719	-387.3399047851564	1256.284545898438	-880.0405273437502	-213.930160522461	1497.87841796875	-872.2575683593752	-269.6417541503907	1548.3798828125	-1060.087158203125	-363.7292480468751	1413.982666015625	-1222.608520507813	-328.2317504882813	1378.016235351563	-1225.6689453125	-368.9652404785157	1359.267822265625	-1266.533325195313	-368.1031494140626	1294.013549804688	-1296.463989257813	-444.0015563964845	1278.839721679688	-1252.03564453125	-358.5895996093751	1054.542724609375	-1124.536376953125	-310.7042236328126	1036.537963867188	-1180.691650390625	-306.8538818359376	1062.643310546875	-1078.007568359375	-240.7554779052735	1542.428466796875	-679.8366088867189	-364.1520385742188	1424.2080078125	-529.4204711914064	-334.9345397949219	1385.01513671875	-517.1432495117189	-384.6536865234376	1373.181640625	-486.0121459960939	-384.6975402832032	1307.6669921875	-457.6190795898439	-460.3396606445314	1300.186401367188	-504.827117919922	-346.1064147949219	1103.112426757813	-671.6331176757814	-337.7609252929688	1053.9482421875	-613.2733154296876	-288.6884765625001	1078.312744140625	-712.6107788085939	-228.1453552246094	1061.870239257813	-998.2900390625002	-231.2826080322266	1045.877563476563	-777.5841064453127	-407.741912841797	1123.276733398438	-883.6173095703127	-413.8672180175782	1093.661010742188	-913.3745727539065	-418.5410156250001	1091.467529296875	-855.3251953125002	-296.2395019531251	788.939147949219	-1081.360229492188	-261.3636779785157	711.7430419921876	-1084.71142578125	-213.6570739746094	715.9687500000001	-1077.134033203125	-286.7290954589844	657.9248657226564	-1072.022216796875	-284.4751586914063	535.1509399414064	-1071.901245117188	-248.4503936767579	506.8116149902345	-960.970886230469	-234.4542694091797	383.5139465332032	-1056.775390625	-308.6702575683594	348.0835876464844	-1092.9267578125	-267.4847717285157	340.6852416992188	-1080.320190429688	-268.1965332031251	259.9791870117188	-1042.898071289063	-346.4697875976563	100.0036544799805	-1072.137573242188	-315.9931945800782	94.81557464599611	-989.7092895507815	-408.9714660644532	41.02792739868165	-1024.733642578125	-175.4172058105469	56.2584571838379	-1051.816650390625	-189.580810546875	55.49848937988283	-1092.525024414063	-241.7578277587891	32.24412536621094	-1135.933227539063	-272.8023376464844	785.1822509765627	-693.9057617187501	-227.854232788086	735.7011108398439	-686.5593261718751	-196.4102935791016	741.7309570312501	-692.8236083984376	-246.8152008056641	651.8859252929689	-690.4035034179689	-264.9156188964844	513.6812744140626	-703.4599609375001	-222.7989044189454	494.056854248047	-812.2922363281252	-235.9323272705079	302.6969299316407	-694.5958251953126	-324.2128295898438	242.0375518798829	-685.6121826171876	-278.7350769042969	231.461898803711	-681.6342773437501	-260.5292053222657	179.2831268310547	-706.3225097656251	-333.7429199218751	92.91271972656251	-679.3899536132814	-295.1958312988282	97.68498992919925	-761.9526977539064	-395.1921691894532	40.32942581176759	-731.9100952148439	-162.0643463134766	50.47582244873048	-698.6751708984376	-175.0326538085938	57.09390258789064	-654.6713867187501	-234.3065490722657	31.64843559265137	-610.1405639648439	
1517	7.58	-206.1503143310547	1774.656616210938	-789.4702758789065	-311.3473510742188	1712.99951171875	-948.554138183594	-328.8349914550782	1722.495849609375	-808.966491699219	-355.2115478515626	1571.4501953125	-870.538024902344	-387.258026123047	1256.234741210938	-880.0860595703127	-213.9036560058594	1497.969482421875	-872.5225219726565	-269.7737731933594	1548.371215820313	-1060.37744140625	-363.8533325195313	1413.903442382813	-1222.757690429688	-328.4252624511719	1377.881103515625	-1225.860229492188	-369.1832885742188	1359.154907226563	-1266.697631835938	-368.3412170410157	1293.86572265625	-1296.56640625	-444.8447570800782	1279.512573242188	-1252.043701171875	-358.4630737304688	1054.455322265625	-1124.558959960938	-310.7373657226563	1036.499267578125	-1180.750732421875	-306.8161621093751	1062.699340820313	-1078.177856445313	-240.6507110595704	1542.5048828125	-680.1799316406251	-364.0061645507813	1424.271484375	-529.6604614257814	-334.7032470703126	1385.182983398438	-517.3486938476564	-384.6129760742189	1373.37353515625	-486.1320800781251	-384.7076416015626	1307.351196289063	-457.7765197753907	-460.1297912597657	1300.208740234375	-505.0590209960939	-345.7206420898438	1103.140625	-671.7684936523439	-337.5268554687501	1054.1171875	-613.4078979492189	-288.5014038085938	1078.32763671875	-712.7229614257814	-228.1552734375001	1061.897094726563	-998.4127197265627	-231.0481719970704	1045.909301757813	-777.700378417969	-408.2290344238282	1123.3037109375	-883.441833496094	-413.7218322753907	1093.704833984375	-913.4377441406252	-418.2589416503907	1091.534790039063	-855.3073730468752	-296.3472900390626	789.0684204101565	-1081.39892578125	-261.5519409179688	711.7229614257814	-1084.743896484375	-213.7599487304688	715.9822998046876	-1077.224365234375	-286.8894958496094	657.9875488281251	-1072.032592773438	-284.7534790039063	535.2639160156251	-1071.921997070313	-248.6165008544922	506.7997131347657	-960.9672851562502	-234.6102294921876	383.6245422363282	-1056.801391601563	-308.8487854003907	348.0738525390626	-1092.935546875	-267.9649963378907	340.7102355957032	-1079.912963867188	-268.2790222167969	259.9850769042969	-1042.904907226563	-346.4991149902344	100.0450286865235	-1072.151000976563	-316.0346069335938	94.81419372558595	-989.7403564453127	-408.9708251953126	41.01365661621094	-1024.751220703125	-175.4478302001953	56.25958633422853	-1051.809936523438	-189.6428833007813	55.60546493530275	-1092.322387695313	-241.8199157714844	32.1922836303711	-1135.887939453125	-272.6976013183594	785.196228027344	-693.9550781250001	-227.8179321289063	735.6908569335939	-686.7023315429689	-196.3004608154297	741.6668701171876	-692.8460693359376	-246.7722473144532	651.9246215820314	-690.5273437500001	-264.8538818359376	513.7149658203126	-703.6076660156251	-223.4148559570313	493.7700195312501	-812.5396728515627	-235.9927825927735	302.7427673339844	-694.6670532226564	-324.1757812500001	242.1509399414063	-685.5964355468751	-278.7377929687501	231.4746856689454	-681.6473999023439	-260.5822753906251	179.3051300048828	-706.3852539062501	-333.7428894042969	92.9269485473633	-679.3968505859376	-295.2268371582032	97.67761993408206	-761.9774780273439	-395.161102294922	40.29158401489259	-731.9399414062501	-162.0708312988282	50.50974655151369	-698.6933593750001	-175.0346221923828	57.09412384033205	-654.6917724609376	-234.3009338378907	31.69038009643555	-610.1381835937501	
1518	7.585	-206.112289428711	1774.717651367188	-789.7280883789065	-311.1953430175782	1712.945678710938	-949.0300903320315	-328.8159484863282	1722.610107421875	-809.4094848632815	-355.2316284179688	1571.549926757813	-870.8362426757815	-387.0703735351564	1256.286987304688	-880.1243896484377	-213.8265991210938	1498.005126953125	-872.8234863281252	-269.8387145996094	1548.3583984375	-1060.8095703125	-364.0337524414063	1413.802734375	-1222.9873046875	-328.5910034179688	1377.786987304688	-1226.133544921875	-369.3801269531251	1359.052856445313	-1266.850708007813	-368.4578552246094	1293.794189453125	-1296.730346679688	-444.563201904297	1278.937133789063	-1252.260131835938	-358.6054077148438	1054.707763671875	-1124.487548828125	-310.8875427246094	1036.43994140625	-1180.832153320313	-306.7501831054688	1062.748291015625	-1078.26318359375	-240.4281463623047	1542.694580078125	-680.5866699218751	-363.5380554199219	1424.595947265625	-529.7304077148439	-334.5668945312501	1385.2880859375	-517.6565551757814	-384.4190673828126	1373.533325195313	-486.3362426757814	-384.3584899902345	1308.0107421875	-458.032928466797	-459.9137268066407	1300.252807617188	-505.2981262207032	-345.4982299804688	1103.20263671875	-671.8742675781251	-337.2903442382813	1054.197509765625	-613.5879516601564	-288.2812500000001	1078.410766601563	-712.8306884765626	-227.9892883300782	1062.008422851563	-998.5961914062502	-230.7730712890626	1045.984497070313	-777.898864746094	-407.9846801757814	1123.342407226563	-883.5550537109377	-413.5044555664064	1093.6845703125	-913.5570068359377	-418.2322387695314	1091.522094726563	-855.4981079101565	-296.4464416503907	789.1072387695315	-1081.473022460938	-261.6619567871094	711.7321777343751	-1084.8134765625	-213.7876281738282	715.9733276367189	-1077.28955078125	-287.0408020019532	658.0823974609376	-1072.044311523438	-284.8692932128907	535.2853393554689	-1071.929077148438	-248.7663879394532	506.8728942871095	-961.0046386718752	-234.8422088623047	383.7084350585938	-1056.855834960938	-309.0386657714844	348.1283569335938	-1092.976806640625	-268.3270568847657	340.5686645507813	-1079.942749023438	-268.4255676269532	260.0205078125001	-1042.943725585938	-346.4875183105469	99.98471832275393	-1072.147827148438	-316.0166320800782	94.77550506591798	-989.7107543945315	-408.9766235351564	41.03974151611329	-1024.727416992188	-175.412826538086	56.2716522216797	-1051.8662109375	-189.5477752685547	55.5756187438965	-1092.376586914063	-241.7919311523438	32.17071533203126	-1135.913452148438	-272.6263732910157	785.1534423828127	-694.0552978515626	-227.7678222656251	735.7025756835939	-686.8221435546876	-196.1528778076172	741.7033691406251	-693.0009765625001	-246.6253662109376	651.9069213867189	-690.6031494140626	-264.8329467773438	513.7178955078126	-703.6705932617189	-222.7993164062501	494.0417785644532	-812.4876098632815	-235.9338989257813	302.7416687011719	-694.7584838867189	-324.2138977050782	242.1580810546876	-685.6348266601564	-278.7181701660157	231.4988708496094	-681.6788330078126	-260.6192932128907	179.3243408203125	-706.4097900390626	-333.7434082031251	92.93953704833986	-679.4120483398439	-295.2299194335938	97.66277313232425	-761.9629516601564	-395.1509399414064	40.30841445922852	-731.9608764648439	-162.0874328613282	50.5256805419922	-698.7243041992189	-175.040756225586	57.07503890991212	-654.6868896484376	-234.3102722167969	31.67438316345216	-610.1359252929689	
1519	7.59	-205.9333801269532	1775.070922851563	-790.0576171875002	-311.1261901855469	1712.948364257813	-949.5994262695315	-328.8244323730469	1722.675903320313	-809.7564697265627	-355.2087402343751	1571.61083984375	-871.0977172851565	-386.9568176269532	1256.3134765625	-880.1318969726565	-213.753402709961	1498.081787109375	-873.064880371094	-269.9093322753907	1548.29541015625	-1061.07666015625	-364.1131286621094	1413.726928710938	-1223.160888671875	-328.7273559570313	1377.68505859375	-1226.346557617188	-369.4777832031251	1358.924194335938	-1267.021240234375	-368.6788330078126	1293.684692382813	-1296.816528320313	-444.747283935547	1278.869140625	-1252.403198242188	-358.4644775390626	1054.666748046875	-1124.51806640625	-310.9296264648438	1036.362182617188	-1180.928466796875	-306.6876220703126	1062.790161132813	-1078.429565429688	-240.3222351074219	1542.838134765625	-680.8572387695314	-363.5838623046876	1424.464233398438	-530.1508789062501	-334.3783874511719	1385.510131835938	-517.9784545898439	-384.3476867675782	1373.733154296875	-486.5573120117189	-384.1927185058595	1308.046264648438	-458.2606201171876	-459.7530822753907	1300.280639648438	-505.4757080078126	-345.4475097656251	1103.353149414063	-671.9959106445314	-336.8869018554688	1054.408325195313	-613.7247924804689	-288.0075988769532	1078.5146484375	-713.0024414062501	-227.8905944824219	1062.004272460938	-998.6973266601565	-230.5436553955079	1045.962280273438	-778.0429687500002	-407.8412170410157	1123.407470703125	-883.6092529296877	-413.4223022460939	1093.75927734375	-913.6022949218752	-417.951385498047	1091.557739257813	-855.521911621094	-296.4882812500001	789.2105102539065	-1081.484008789063	-261.7442626953126	711.7574462890626	-1084.9287109375	-213.920883178711	715.9849243164064	-1077.3681640625	-287.1652832031251	658.1080932617189	-1072.116088867188	-285.0312500000001	535.3006591796876	-1071.9365234375	-248.9684295654297	506.9118041992189	-961.0730590820315	-235.0415496826172	383.7204895019532	-1056.899780273438	-309.2512207031251	348.1545104980469	-1092.9794921875	-268.1945190429688	340.8106384277344	-1080.06591796875	-268.4939270019532	260.0826721191407	-1042.963256835938	-346.5206298828126	100.00048828125	-1072.130249023438	-316.0003967285157	94.78914642333986	-989.710144042969	-408.9111633300782	41.02182006835938	-1024.728637695313	-175.3825378417969	56.25725173950197	-1051.861938476563	-189.5823059082032	55.5442581176758	-1092.34716796875	-241.8242950439454	32.17281341552735	-1135.917114257813	-272.5380249023438	785.2424316406252	-694.0537109375001	-227.5866088867188	735.6931152343751	-686.9058837890626	-195.9808044433594	741.6799316406251	-693.1553344726564	-246.5004882812501	651.9649658203126	-690.7025756835939	-264.8077087402344	513.6924438476564	-703.7384033203126	-222.7549133300782	494.0045471191407	-812.547302246094	-235.9363403320313	302.8528137207032	-694.8072509765626	-324.1869812011719	242.2255249023438	-685.6383666992189	-278.7252197265626	231.533432006836	-681.7116088867189	-260.6383972167969	179.3943328857422	-706.4670410156251	-333.7268371582032	92.9524612426758	-679.4221801757814	-295.2434692382813	97.67333984375003	-761.9931030273439	-395.1757812500001	40.32369232177735	-731.9526977539064	-162.0963745117188	50.52473831176759	-698.7202758789064	-174.9981994628907	57.02162933349611	-654.6910400390626	-234.3189544677735	31.72259330749512	-610.1267089843751	
